<svg width="108" height="110" fill="none" xmlns="http://www.w3.org/2000/svg"><g opacity=".6" filter="url(#a)" fill-rule="evenodd" clip-rule="evenodd" fill="#88A728"><path d="M55.88 52.914c1.22.985 1.369 2.724.33 3.882-5.344 5.964-9.851 15.106-10.753 22.553-.452 3.735.052 6.623 1.316 8.487 1.138 1.677 3.206 2.984 7.227 2.984 1.603 0 2.902 1.233 2.902 2.755 0 1.52-1.3 2.754-2.902 2.754-5.548 0-9.68-1.933-12.107-5.51-2.3-3.392-2.725-7.773-2.201-12.099 1.05-8.673 6.11-18.813 12.098-25.493 1.038-1.159 2.87-1.3 4.09-.313z"/><path d="M52.12 52.914c-1.22.985-1.369 2.724-.33 3.882 5.344 5.964 9.851 15.106 10.753 22.553.452 3.735-.052 6.623-1.316 8.487-1.138 1.677-3.206 2.984-7.227 2.984-1.603 0-2.902 1.233-2.902 2.755 0 1.52 1.3 2.754 2.902 2.754 5.548 0 9.68-1.933 12.107-5.51 2.3-3.392 2.725-7.773 2.201-12.099-1.05-8.673-6.11-18.813-12.098-25.493-1.038-1.159-2.87-1.3-4.09-.313zM29.764 14.35c1.22.986 1.368 2.725.33 3.883-5.344 5.964-9.851 15.106-10.753 22.553-.452 3.735.052 6.623 1.316 8.487 1.137 1.677 3.206 2.984 7.227 2.984 1.602 0 2.902 1.233 2.902 2.755 0 1.52-1.3 2.754-2.902 2.754-5.548 0-9.68-1.933-12.107-5.51-2.3-3.392-2.725-7.773-2.202-12.099 1.05-8.673 6.112-18.813 12.099-25.493 1.038-1.159 2.87-1.3 4.09-.313z"/><path d="M26.004 14.35c-1.221.986-1.369 2.725-.33 3.883 5.344 5.964 9.85 15.106 10.752 22.553.453 3.735-.051 6.623-1.315 8.487-1.138 1.677-3.206 2.984-7.227 2.984-1.603 0-2.902 1.233-2.902 2.755 0 1.52 1.3 2.754 2.902 2.754 5.548 0 9.68-1.933 12.106-5.51 2.301-3.392 2.726-7.773 2.202-12.099-1.05-8.673-6.111-18.813-12.098-25.493-1.038-1.159-2.87-1.3-4.09-.313zM81.996 14.35c1.221.986 1.369 2.725.33 3.883-5.344 5.964-9.85 15.106-10.752 22.553-.453 3.735.051 6.623 1.315 8.487 1.138 1.677 3.207 2.984 7.227 2.984 1.603 0 2.902 1.233 2.902 2.755 0 1.52-1.3 2.754-2.902 2.754-5.548 0-9.68-1.933-12.106-5.51-2.301-3.392-2.726-7.773-2.202-12.099 1.05-8.673 6.111-18.813 12.098-25.493 1.038-1.159 2.87-1.3 4.09-.313z"/><path d="M78.236 14.35c-1.22.986-1.368 2.725-.33 3.883 5.344 5.964 9.851 15.106 10.753 22.553.452 3.735-.052 6.623-1.316 8.487-1.137 1.677-3.206 2.984-7.227 2.984-1.602 0-2.902 1.233-2.902 2.755 0 1.52 1.3 2.754 2.902 2.754 5.548 0 9.68-1.933 12.107-5.51 2.3-3.392 2.725-7.773 2.202-12.099-1.05-8.673-6.112-18.813-12.099-25.493-1.038-1.159-2.87-1.3-4.09-.313z"/></g><path fill-rule="evenodd" clip-rule="evenodd" d="M55.88 52.754c1.22.986 1.369 2.724.33 3.883-5.344 5.964-9.851 15.105-10.753 22.553-.452 3.735.052 6.623 1.316 8.487 1.138 1.677 3.206 2.984 7.227 2.984 1.603 0 2.902 1.233 2.902 2.754 0 1.522-1.3 2.755-2.902 2.755-5.548 0-9.68-1.933-12.107-5.51-2.3-3.392-2.725-7.774-2.201-12.1 1.05-8.672 6.11-18.812 12.098-25.492 1.038-1.16 2.87-1.3 4.09-.314z" fill="#88A728"/><path fill-rule="evenodd" clip-rule="evenodd" d="M52.12 52.754c-1.22.986-1.369 2.724-.33 3.883 5.344 5.964 9.851 15.105 10.753 22.553.452 3.735-.052 6.623-1.316 8.487-1.138 1.677-3.206 2.984-7.227 2.984-1.603 0-2.902 1.233-2.902 2.754 0 1.522 1.3 2.755 2.902 2.755 5.548 0 9.68-1.933 12.107-5.51 2.3-3.392 2.725-7.774 2.201-12.1-1.05-8.672-6.11-18.812-12.098-25.492-1.038-1.16-2.87-1.3-4.09-.314zM29.764 14.191c1.22.986 1.368 2.725.33 3.883-5.344 5.964-9.851 15.105-10.753 22.553-.452 3.735.052 6.623 1.316 8.487 1.137 1.677 3.206 2.984 7.227 2.984 1.602 0 2.902 1.233 2.902 2.754 0 1.522-1.3 2.755-2.902 2.755-5.548 0-9.68-1.933-12.107-5.51-2.3-3.392-2.725-7.774-2.202-12.1 1.05-8.672 6.112-18.812 12.099-25.492 1.038-1.159 2.87-1.3 4.09-.314z" fill="#88A728"/><path fill-rule="evenodd" clip-rule="evenodd" d="M26.004 14.191c-1.221.986-1.369 2.725-.33 3.883 5.344 5.964 9.85 15.105 10.752 22.553.453 3.735-.051 6.623-1.315 8.487-1.138 1.677-3.206 2.984-7.227 2.984-1.603 0-2.902 1.233-2.902 2.754 0 1.522 1.3 2.755 2.902 2.755 5.548 0 9.68-1.933 12.106-5.51 2.301-3.392 2.726-7.774 2.202-12.1-1.05-8.672-6.111-18.812-12.098-25.492-1.038-1.159-2.87-1.3-4.09-.314zM81.996 14.191c1.221.986 1.369 2.725.33 3.883-5.344 5.964-9.85 15.105-10.752 22.553-.453 3.735.051 6.623 1.315 8.487 1.138 1.677 3.207 2.984 7.227 2.984 1.603 0 2.902 1.233 2.902 2.754 0 1.522-1.3 2.755-2.902 2.755-5.548 0-9.68-1.933-12.106-5.51-2.301-3.392-2.726-7.774-2.202-12.1 1.05-8.672 6.111-18.812 12.098-25.492 1.038-1.159 2.87-1.3 4.09-.314z" fill="#88A728"/><path fill-rule="evenodd" clip-rule="evenodd" d="M78.236 14.191c-1.22.986-1.368 2.725-.33 3.883 5.344 5.964 9.851 15.105 10.753 22.553.452 3.735-.052 6.623-1.316 8.487-1.137 1.677-3.206 2.984-7.227 2.984-1.602 0-2.902 1.233-2.902 2.754 0 1.522 1.3 2.755 2.902 2.755 5.548 0 9.68-1.933 12.107-5.51 2.3-3.392 2.725-7.774 2.202-12.1-1.05-8.672-6.112-18.812-12.099-25.492-1.038-1.159-2.87-1.3-4.09-.314z" fill="#88A728"/><defs><filter id="a" x="-9" y="-8.841" width="126" height="127.705" filterUnits="userSpaceOnUse" color-interpolation-filters="sRGB"><feFlood flood-opacity="0" result="BackgroundImageFix"/><feBlend in="SourceGraphic" in2="BackgroundImageFix" result="shape"/><feGaussianBlur stdDeviation="6.5" result="effect1_foregroundBlur_1042_2409"/></filter></defs></svg>