<svg width="106" height="114" fill="none" xmlns="http://www.w3.org/2000/svg"><g opacity=".6" filter="url(#a)" fill-rule="evenodd" clip-rule="evenodd"><path d="M36.426 50.842c1.113-1.036 2.917-1.036 4.03 0l1.22 1.136c7.614 7.078 12.122 11.27 14.406 17.223 1.201 3.132 1.757 6.638 2.03 11.12.272 4.452.272 10.051.272 17.405v.087c0 1.465-1.275 2.653-2.849 2.653-1.573 0-2.849-1.188-2.849-2.653 0-7.458 0-12.907-.262-17.191-.26-4.272-.773-7.198-1.709-9.637-1.842-4.804-5.44-8.154-13.9-16.029l-.389-.362c-1.112-1.036-1.112-2.716 0-3.752z" fill="#212420"/><path d="M72.29 38.199c.745 1.29.225 2.899-1.16 3.592-2.395 1.198-5.534 3.491-8.123 11.305-2.644 7.975-4.622 21.456-4.622 44.717 0 1.465-1.276 2.653-2.85 2.653-1.573 0-2.848-1.188-2.848-2.653 0-23.427 1.978-37.54 4.875-46.282 2.95-8.902 6.934-12.445 10.87-14.414 1.387-.693 3.114-.209 3.859 1.082z" fill="#212420"/><path d="M63.37 30.157c-6.214 4.881-9.776 11.182-10.754 15.19-.348 1.429-1.875 2.324-3.41 2-1.534-.325-2.495-1.746-2.146-3.175 1.267-5.194 5.527-12.486 12.635-18.07 7.204-5.66 17.416-9.621 30.444-7.841 1.557.213 2.633 1.56 2.405 3.01-.228 1.45-1.676 2.452-3.233 2.239-11.215-1.533-19.824 1.842-25.942 6.647z" fill="#88A728"/><path d="M89.032 18.262c1.556-.216 3.006.783 3.238 2.232.927 5.796.062 13.492-2.817 20.326-2.87 6.815-7.972 13.27-15.92 15.74-1.493.464-3.107-.287-3.605-1.677-.498-1.39.308-2.892 1.8-3.356 5.714-1.775 9.872-6.593 12.42-12.644 2.541-6.03 3.256-12.792 2.486-17.607-.232-1.449.842-2.799 2.398-3.014zM38.391 36.292c3.939 1.821 6.298 5.31 8.909 9.46.809 1.287 2.59 1.816 3.977 1.183 1.387-.634 1.855-2.19 1.046-3.477l-.026-.042c-2.462-3.915-5.65-8.984-11.525-11.702-6.057-2.801-14.098-2.775-25.531 1.378-1.45.526-2.062 2.034-1.37 3.368.694 1.334 2.43 1.99 3.879 1.463 10.784-3.917 16.864-3.379 20.641-1.631z" fill="#88A728"/><path d="M15.85 32.703c-1.579.168-2.615 1.458-2.315 2.883.116.55.24 1.17.377 1.849.917 4.557 2.367 11.757 5.18 18.21 3.151 7.23 8.646 14.926 18.422 15.578 1.606.108 2.913-.965 2.92-2.395.007-1.43-1.289-2.677-2.895-2.784-5.847-.39-9.997-4.987-13.046-11.98-2.576-5.909-3.914-12.527-4.844-17.128-.142-.703-.274-1.36-.4-1.958-.3-1.424-1.822-2.443-3.4-2.275z" fill="#88A728"/></g><path fill-rule="evenodd" clip-rule="evenodd" d="M35.426 42.547c1.113-1.036 2.917-1.036 4.03 0l1.22 1.135c7.614 7.079 12.122 11.27 14.406 17.223 1.201 3.132 1.757 6.638 2.03 11.12.272 4.453.272 10.052.272 17.405v.088c0 1.465-1.275 2.653-2.849 2.653-1.573 0-2.849-1.188-2.849-2.653 0-7.459 0-12.907-.262-17.192-.26-4.271-.773-7.198-1.709-9.636-1.842-4.804-5.44-8.154-13.9-16.03l-.389-.362c-1.112-1.036-1.112-2.715 0-3.751z" fill="#212420"/><path fill-rule="evenodd" clip-rule="evenodd" d="M71.29 29.903c.745 1.291.225 2.9-1.16 3.593-2.395 1.197-5.534 3.491-8.123 11.304-2.644 7.975-4.622 21.457-4.622 44.718 0 1.465-1.276 2.652-2.85 2.652-1.573 0-2.848-1.188-2.848-2.653 0-23.426 1.978-37.54 4.875-46.281 2.95-8.903 6.934-12.445 10.87-14.414 1.387-.693 3.114-.21 3.859 1.081z" fill="#212420"/><path fill-rule="evenodd" clip-rule="evenodd" d="M62.37 21.862c-6.214 4.88-9.776 11.182-10.754 15.19-.348 1.428-1.875 2.323-3.41 1.999-1.534-.325-2.495-1.746-2.146-3.175 1.267-5.193 5.527-12.486 12.635-18.07 7.204-5.659 17.416-9.62 30.444-7.84 1.557.212 2.633 1.56 2.405 3.01-.228 1.449-1.676 2.451-3.233 2.239-11.215-1.533-19.824 1.841-25.942 6.647z" fill="#88A728"/><path fill-rule="evenodd" clip-rule="evenodd" d="M88.032 9.966c1.556-.216 3.006.784 3.238 2.233.927 5.795.062 13.492-2.817 20.326-2.87 6.815-7.972 13.27-15.92 15.74-1.493.463-3.107-.288-3.605-1.677-.498-1.39.308-2.892 1.8-3.356 5.714-1.775 9.872-6.594 12.42-12.644 2.541-6.031 3.256-12.792 2.486-17.607-.232-1.45.842-2.799 2.398-3.015zM37.391 27.996c3.939 1.822 6.298 5.31 8.909 9.461.809 1.287 2.59 1.816 3.977 1.182 1.387-.633 1.855-2.19 1.046-3.477l-.026-.042c-2.462-3.914-5.65-8.984-11.525-11.701-6.057-2.802-14.098-2.776-25.531 1.377-1.45.527-2.062 2.035-1.37 3.369.694 1.334 2.43 1.989 3.879 1.463 10.784-3.918 16.864-3.379 20.641-1.632z" fill="#88A728"/><path fill-rule="evenodd" clip-rule="evenodd" d="M14.85 24.407c-1.579.168-2.615 1.459-2.315 2.883.116.55.24 1.17.377 1.85.917 4.557 2.367 11.757 5.18 18.21 3.151 7.23 8.646 14.926 18.422 15.578 1.606.107 2.913-.965 2.92-2.396.007-1.43-1.289-2.676-2.895-2.783-5.847-.39-9.997-4.987-13.046-11.981-2.576-5.908-3.914-12.526-4.844-17.128-.142-.703-.274-1.358-.4-1.957-.3-1.425-1.822-2.443-3.4-2.276z" fill="#88A728"/><defs><filter id="a" x="-11" y="-4.705" width="126" height="127.705" filterUnits="userSpaceOnUse" color-interpolation-filters="sRGB"><feFlood flood-opacity="0" result="BackgroundImageFix"/><feBlend in="SourceGraphic" in2="BackgroundImageFix" result="shape"/><feGaussianBlur stdDeviation="6.5" result="effect1_foregroundBlur_1042_2406"/></filter></defs></svg>