<svg width="120" height="116" fill="none" xmlns="http://www.w3.org/2000/svg"><g opacity=".4" filter="url(#a)" fill-rule="evenodd" clip-rule="evenodd"><path d="M42.441 27.965C37.895 31.174 35 35.83 35 42.088c0 1.762-1.4 3.19-3.125 3.19-1.726 0-3.125-1.428-3.125-3.19 0-8.627 4.136-15.136 10.137-19.37 5.907-4.169 13.597-6.149 21.113-6.149s15.206 1.98 21.113 6.149c6 4.234 10.137 10.743 10.137 19.37 0 1.762-1.4 3.19-3.125 3.19-1.726 0-3.125-1.428-3.125-3.19 0-6.258-2.895-10.914-7.441-14.123C72.919 24.691 66.546 22.95 60 22.95c-6.546 0-12.919 1.742-17.559 5.016z" fill="#88A728"/><path d="M77.558 88.11C82.105 84.903 85 80.246 85 73.987c0-1.761 1.4-3.19 3.126-3.19 1.725 0 3.124 1.429 3.124 3.19 0 8.629-4.136 15.137-10.136 19.371-5.907 4.169-13.597 6.149-21.114 6.149-7.516 0-15.206-1.98-21.113-6.149-6-4.234-10.137-10.743-10.137-19.37 0-1.762 1.4-3.19 3.126-3.19 1.725 0 3.124 1.428 3.124 3.19 0 6.258 2.895 10.914 7.442 14.123 4.64 3.274 11.012 5.016 17.558 5.016 6.547 0 12.92-1.742 17.56-5.016z" fill="#212420"/><path d="M85.915 55.782a3.08 3.08 0 0 1 4.42 0l12.499 12.76a3.236 3.236 0 0 1 0 4.511 3.08 3.08 0 0 1-4.42 0L88.125 62.55l-10.29 10.504a3.08 3.08 0 0 1-4.42 0 3.237 3.237 0 0 1 0-4.511l12.5-12.76z" fill="#212420"/><path d="M29.665 60.294a3.08 3.08 0 0 0 4.42 0l12.5-12.76a3.237 3.237 0 0 0 0-4.511 3.08 3.08 0 0 0-4.42 0l-10.29 10.504-10.29-10.504a3.08 3.08 0 0 0-4.42 0 3.237 3.237 0 0 0 0 4.511l12.5 12.76z" fill="#88A728"/></g><path fill-rule="evenodd" clip-rule="evenodd" d="M40.441 31.89C35.895 35.097 33 39.753 33 46.011c0 1.762-1.4 3.19-3.125 3.19-1.726 0-3.125-1.428-3.125-3.19 0-8.628 4.137-15.136 10.137-19.37 5.907-4.169 13.597-6.149 21.113-6.149s15.206 1.98 21.113 6.149c6 4.234 10.137 10.742 10.137 19.37 0 1.762-1.4 3.19-3.125 3.19-1.726 0-3.125-1.428-3.125-3.19 0-6.258-2.895-10.914-7.441-14.123-4.64-3.274-11.013-5.016-17.559-5.016-6.546 0-12.919 1.742-17.559 5.016z" fill="#88A728"/><path fill-rule="evenodd" clip-rule="evenodd" d="M75.558 92.034C80.105 88.826 83 84.17 83 77.911c0-1.761 1.4-3.19 3.126-3.19 1.725 0 3.124 1.429 3.124 3.19 0 8.628-4.136 15.137-10.136 19.371-5.907 4.169-13.597 6.148-21.114 6.148-7.516 0-15.206-1.979-21.113-6.148-6-4.234-10.137-10.743-10.137-19.37 0-1.762 1.4-3.19 3.126-3.19 1.725 0 3.124 1.428 3.124 3.19 0 6.257 2.895 10.914 7.442 14.122 4.64 3.275 11.012 5.017 17.558 5.017 6.547 0 12.92-1.742 17.56-5.017z" fill="#212420"/><path fill-rule="evenodd" clip-rule="evenodd" d="M83.915 59.706a3.08 3.08 0 0 1 4.42 0l12.499 12.76a3.236 3.236 0 0 1 0 4.511 3.08 3.08 0 0 1-4.42 0l-10.29-10.504-10.29 10.504a3.08 3.08 0 0 1-4.42 0 3.237 3.237 0 0 1 0-4.511l12.5-12.76z" fill="#212420"/><path fill-rule="evenodd" clip-rule="evenodd" d="M27.665 64.217a3.08 3.08 0 0 0 4.42 0l12.5-12.76a3.237 3.237 0 0 0 0-4.51 3.08 3.08 0 0 0-4.42 0L29.875 57.45l-10.29-10.503a3.08 3.08 0 0 0-4.42 0 3.237 3.237 0 0 0 0 4.51l12.5 12.76z" fill="#88A728"/><defs><filter id="a" x="-6" y="-9" width="132" height="134.076" filterUnits="userSpaceOnUse" color-interpolation-filters="sRGB"><feFlood flood-opacity="0" result="BackgroundImageFix"/><feBlend in="SourceGraphic" in2="BackgroundImageFix" result="shape"/><feGaussianBlur stdDeviation="8" result="effect1_foregroundBlur_1042_2412"/></filter></defs></svg>